# xmcd CD database file
#
# Track frame offsets:
#	150
#	5869
#	49305
#	96940
#	148686
#	212426
#	252974
#
# Disc length: 3995 seconds
#
# Revision: 1
# Processed by: cddbd v1.5.2PL0 Copyright (c) Steve Scherf et al.
# Submitted via: CDex 1.70beta2
#
DISCID=630f9907
DTITLE=Blue Monday - Live at Norma's
DYEAR=2002
DGENRE=Blues
TTITLE0=Intro
TTITLE1=Muddy Water
TTITLE2=Riot Goin' On
TTITLE3=Trouble Makin' Woman
TTITLE4=Could This Be Real?
TTITLE5=Ain't No Way
TTITLE6=Bare Footin'
EXTD=YEAR: 2002
EXTT0=
EXTT1=
EXTT2=
EXTT3=
EXTT4=
EXTT5=
EXTT6=
PLAYORDER=
